Motion_pl11
version=1
nRows=5
nColumns=43
inDegrees=yes
endheader
time	pelvis_tilt	pelvis_list	pelvis_rotation	pelvis_tx	pelvis_ty	pelvis_tz	hip_flexion_r	hip_adduction_r	hip_rotation_r	knee_angle_r	ankle_angle_r	subtalar_angle_r	mtp_angle_r	hip_flexion_l	hip_adduction_l	hip_rotation_l	knee_angle_l	ankle_angle_l	subtalar_angle_l	mtp_angle_l	lumbar_extension	lumbar_bending	lumbar_rotation	neck_flexion	neck_lateral_bending	neck_rotation	arm_flex_r	arm_add_r	arm_rot_r	elbow_flex_r	pro_sup_r	wrist_flex_r	wrist_dev_r	hand_finger_flex_r	arm_flex_l	arm_add_l	arm_rot_l	elbow_flex_l	pro_sup_l	wrist_flex_l	wrist_dev_l	hand_finger_flex_l
      1.96750000	     -3.55918416	    -11.35270380	     87.57819342	     -0.02060244	      0.88406169	      0.27015019	     37.76840691	     -5.62924487	     -2.80334755	    -47.79927010	      0.50610219	      2.47694715	     18.52677601	     36.99623485	     -0.24130649	     -8.67937550	    -44.94402229	     -3.21639371	     -9.53484218	     27.62727773	    -62.51705950	      0.18505603	     -2.45076106	     13.70917070	     -1.82612370	     -0.03320518	      9.12772371	    -19.63634442	      4.42774692	     29.21291902	    114.34164139	    -18.27244768	     -0.46082232	     20.93839740	      3.31677702	    -13.31938837	    -14.46605845	     32.58292353	    149.04284043	     -7.77128981	      5.49932482	     71.85789358
      1.97000000	     -3.64316166	    -10.67331026	     87.52875824	     -0.02048979	      0.88542044	      0.26893787	     36.75609958	     -5.76791070	     -2.89610104	    -47.41444155	      0.81052265	      2.73745044	     18.73301370	     36.01976373	     -0.20874446	     -8.96352413	    -44.66208984	     -2.89691588	     -9.08746704	     27.97613921	    -63.04768923	      0.08489248	     -2.51482305	     13.60989548	     -1.82223829	     -0.06590502	      9.12667358	    -19.58812363	      4.41031502	     29.17594859	    113.64711976	    -18.28845189	     -0.40816422	     20.90777935	      3.37890818	    -13.28956727	    -14.80603883	     32.60366668	    148.83742642	     -7.40669059	      5.53123076	     71.13553806
      1.97250000	     -3.63858498	    -10.65042229	     87.52061849	     -0.02054969	      0.88552002	      0.26872695	     36.71542168	     -5.76894325	     -2.89873634	    -47.42768381	      0.80748088	      2.73742692	     18.73322103	     35.97997755	     -0.20970052	     -8.96465391	    -44.67151045	     -2.89987300	     -9.08750886	     27.97676825	    -62.93271236	      0.08667400	     -2.51741191	     13.62008377	     -1.82059240	     -0.06579970	      9.14440833	    -19.59037295	      4.40960026	     29.18914756	    113.64568079	    -18.29036948	     -0.41037580	     20.90738004	      3.40960657	    -13.30137599	    -14.80954969	     32.62431879	    148.83628615	     -7.40815200	      5.52973712	     71.13346685
      1.97500000	     -3.63386410	    -10.61552480	     87.52084190	     -0.02054984	      0.88543041	      0.26835090	     36.64286951	     -5.77276168	     -2.91731500	    -47.41811371	      0.80610092	      2.73633681	     18.73459286	     35.91154900	     -0.21626183	     -8.97608938	    -44.66133692	     -2.90138250	     -9.08974422	     27.97976647	    -62.77057436	      0.08042180	     -2.51596199	     13.60931749	     -1.81726614	     -0.06363617	      9.08913873	    -19.57281556	      4.41528970	     29.17435194	    113.63648622	    -18.28935464	     -0.40604675	     20.90788852	      3.38350695	    -13.30982081	    -14.82307199	     32.62736883	    148.82999405	     -7.40487108	      5.53088094	     71.12389512
      1.97750000	     -3.62874479	    -10.58909884	     87.51091932	     -0.02063247	      0.88550116	      0.26813169	     36.59820761	     -5.77393053	     -2.92382654	    -47.42712710	      0.80606664	      2.73566698	     18.73512299	     35.87033656	     -0.21369109	     -8.98017967	    -44.67107723	     -2.90095698	     -9.09085813	     27.98074820	    -62.65457235	      0.08383176	     -2.51676998	     13.60922271	     -1.81495085	     -0.06343268	      9.11177426	    -19.57189385	      4.41221071	     29.19008134	    113.63296046	    -18.29205003	     -0.40856216	     20.90722943	      3.42259761	    -13.32367344	    -14.83105748	     32.65301402	    148.82621407	     -7.40809110	      5.52902420	     71.12072258
